<?xml version="1.0" encoding="UTF-8"?><svg id="Layer_2" xmlns="https://www.w3.org/2000/svg" viewBox="0 0 442.43 165.58"><defs><style>.cls-1{fill:#343b41;}.cls-1,.cls-2{stroke-width:0px;}.cls-2{fill:#00e2bd;}</style></defs><g id="Layer_1-2"><path class="cls-1" d="M1.56,158.75v-88.94c0-8.95,7.25-16.2,16.2-16.2h0c8.47,0,15.34,6.87,15.34,15.34v89.81H1.56Z"/><path class="cls-1" d="M252.43,118.79c3.64,9.82,12.05,14.72,25.23,14.72,8.55,0,15.28-2.66,20.19-7.99l25.23,14.51c-10.38,14.44-25.66,21.66-45.84,21.66-17.66,0-31.79-5.26-42.37-15.77-10.59-10.51-15.88-23.76-15.88-39.75s5.22-29.05,15.67-39.64c10.44-10.58,23.87-15.88,40.27-15.88,15.28,0,28,5.29,38.17,15.88,10.16,10.59,15.25,23.8,15.25,39.64,0,4.49-.42,8.69-1.26,12.62h-74.65ZM251.8,95.24h45.21c-3.08-11.07-10.51-16.61-22.29-16.61s-19.84,5.54-22.92,16.61Z"/><path class="cls-1" d="M403.11,50.66c11.21,0,20.57,3.86,28.07,11.57,7.5,7.71,11.25,18.37,11.25,31.96v64.56h-31.54v-59.93c0-6.17-1.72-10.9-5.15-14.19-3.44-3.29-7.82-4.94-13.14-4.94-6.03,0-10.8,1.82-14.3,5.47-3.51,3.65-5.26,9.04-5.26,16.19v57.41h-31.54V53.6h31.54v9.88c6.31-8.55,16.33-12.83,30.07-12.83Z"/><rect class="cls-2" x="0" y="8.09" width="34.66" height="34.66" rx="17.33" ry="17.33"/><path class="cls-1" d="M210.18,87.34c0,48.67-33.89,78.24-78.47,78.24-50.04,0-85.97-36.85-85.97-82.56S82.36,0,129.21,0c30.48,0,56.18,15.01,69.6,36.39l-30.93,17.74c-6.6-10.46-20.93-18.65-38.89-18.65-26.84,0-46.85,19.79-46.85,47.76s19.11,46.85,50.04,46.85c21.15,0,35.03-9.33,40.71-24.56h-42.53v-31.84h79.83v13.65Z"/></g></svg>